<mxfile host="app.diagrams.net" agent="Mozilla/5.0 (Windows NT 10.0; Win64; x64) AppleWebKit/537.36 (KHTML, like Gecko) Chrome/126.0.0.0 Safari/537.36 Edg/126.0.0.0" version="24.7.5">
  <diagram name="第 1 页" id="L1AHHqvi039b6F0cQo_x">
    <mxGraphModel dx="913" dy="679" grid="1" gridSize="10" guides="1" tooltips="1" connect="1" arrows="1" fold="1" page="1" pageScale="1" pageWidth="827" pageHeight="1169" math="0" shadow="0">
      <root>
        <mxCell id="0" />
        <mxCell id="1" parent="0" />
        <mxCell id="7nlG7WETLn1QZySaHx2K-1" value="cfg" style="rounded=0;whiteSpace=wrap;html=1;" parent="1" vertex="1">
          <mxGeometry x="40" y="230" width="160" height="520" as="geometry" />
        </mxCell>
        <mxCell id="7nlG7WETLn1QZySaHx2K-2" value="core" style="rounded=0;whiteSpace=wrap;html=1;" parent="1" vertex="1">
          <mxGeometry x="505.38" y="520" width="138.75" height="50" as="geometry" />
        </mxCell>
        <mxCell id="7nlG7WETLn1QZySaHx2K-3" value="out" style="rounded=0;whiteSpace=wrap;html=1;" parent="1" vertex="1">
          <mxGeometry x="335" y="650" width="380" height="80" as="geometry" />
        </mxCell>
        <mxCell id="7nlG7WETLn1QZySaHx2K-30" style="edgeStyle=orthogonalEdgeStyle;rounded=0;orthogonalLoop=1;jettySize=auto;html=1;entryX=0.5;entryY=0;entryDx=0;entryDy=0;" parent="1" source="7nlG7WETLn1QZySaHx2K-4" target="7nlG7WETLn1QZySaHx2K-23" edge="1">
          <mxGeometry relative="1" as="geometry" />
        </mxCell>
        <mxCell id="7nlG7WETLn1QZySaHx2K-4" value="in" style="rounded=1;whiteSpace=wrap;html=1;" parent="1" vertex="1">
          <mxGeometry x="387.5" y="230" width="275" height="50" as="geometry" />
        </mxCell>
        <mxCell id="7nlG7WETLn1QZySaHx2K-22" style="edgeStyle=orthogonalEdgeStyle;rounded=0;orthogonalLoop=1;jettySize=auto;html=1;" parent="1" source="7nlG7WETLn1QZySaHx2K-5" edge="1">
          <mxGeometry relative="1" as="geometry">
            <mxPoint x="530" y="315" as="targetPoint" />
          </mxGeometry>
        </mxCell>
        <mxCell id="7nlG7WETLn1QZySaHx2K-5" value="filt" style="rounded=1;whiteSpace=wrap;html=1;" parent="1" vertex="1">
          <mxGeometry x="565" y="290" width="150" height="50" as="geometry" />
        </mxCell>
        <mxCell id="7nlG7WETLn1QZySaHx2K-32" style="edgeStyle=orthogonalEdgeStyle;rounded=0;orthogonalLoop=1;jettySize=auto;html=1;" parent="1" source="7nlG7WETLn1QZySaHx2K-11" target="7nlG7WETLn1QZySaHx2K-2" edge="1">
          <mxGeometry relative="1" as="geometry" />
        </mxCell>
        <mxCell id="7nlG7WETLn1QZySaHx2K-11" value="mange" style="rounded=0;whiteSpace=wrap;html=1;" parent="1" vertex="1">
          <mxGeometry x="500.75" y="430" width="148" height="50" as="geometry" />
        </mxCell>
        <mxCell id="zzLc3jKyV_ecME2IhbBb-1" style="edgeStyle=orthogonalEdgeStyle;rounded=0;orthogonalLoop=1;jettySize=auto;html=1;entryX=0.5;entryY=0;entryDx=0;entryDy=0;" edge="1" parent="1" source="7nlG7WETLn1QZySaHx2K-23" target="7nlG7WETLn1QZySaHx2K-11">
          <mxGeometry relative="1" as="geometry" />
        </mxCell>
        <mxCell id="7nlG7WETLn1QZySaHx2K-23" value="fmt" style="rounded=0;whiteSpace=wrap;html=1;" parent="1" vertex="1">
          <mxGeometry x="380" y="350" width="290" height="50" as="geometry" />
        </mxCell>
        <mxCell id="7nlG7WETLn1QZySaHx2K-29" value="" style="shape=flexArrow;endArrow=classic;html=1;rounded=0;endWidth=240;endSize=20.725;width=110.83333333333334;" parent="1" edge="1">
          <mxGeometry width="50" height="50" relative="1" as="geometry">
            <mxPoint x="230" y="460" as="sourcePoint" />
            <mxPoint x="350" y="460" as="targetPoint" />
          </mxGeometry>
        </mxCell>
        <mxCell id="7nlG7WETLn1QZySaHx2K-35" value="" style="endArrow=none;html=1;rounded=0;entryX=0.5;entryY=0;entryDx=0;entryDy=0;exitX=0.5;exitY=1;exitDx=0;exitDy=0;" parent="1" source="7nlG7WETLn1QZySaHx2K-3" target="7nlG7WETLn1QZySaHx2K-3" edge="1">
          <mxGeometry width="50" height="50" relative="1" as="geometry">
            <mxPoint x="480" y="730" as="sourcePoint" />
            <mxPoint x="530" y="680" as="targetPoint" />
          </mxGeometry>
        </mxCell>
        <mxCell id="7nlG7WETLn1QZySaHx2K-36" value="terminal" style="text;html=1;align=center;verticalAlign=middle;whiteSpace=wrap;rounded=0;" parent="1" vertex="1">
          <mxGeometry x="353" y="700" width="60" height="30" as="geometry" />
        </mxCell>
        <mxCell id="7nlG7WETLn1QZySaHx2K-37" value="uart..." style="text;html=1;align=center;verticalAlign=middle;whiteSpace=wrap;rounded=0;" parent="1" vertex="1">
          <mxGeometry x="440" y="700" width="70" height="30" as="geometry" />
        </mxCell>
        <mxCell id="7nlG7WETLn1QZySaHx2K-38" value="file" style="text;html=1;align=center;verticalAlign=middle;whiteSpace=wrap;rounded=0;" parent="1" vertex="1">
          <mxGeometry x="580" y="700" width="60" height="30" as="geometry" />
        </mxCell>
        <mxCell id="zzLc3jKyV_ecME2IhbBb-6" style="edgeStyle=orthogonalEdgeStyle;rounded=0;orthogonalLoop=1;jettySize=auto;html=1;" edge="1" parent="1" source="7nlG7WETLn1QZySaHx2K-40">
          <mxGeometry relative="1" as="geometry">
            <mxPoint x="580" y="610" as="targetPoint" />
          </mxGeometry>
        </mxCell>
        <mxCell id="7nlG7WETLn1QZySaHx2K-40" value="&lt;div&gt;statistics&lt;/div&gt;" style="rounded=0;whiteSpace=wrap;html=1;" parent="1" vertex="1">
          <mxGeometry x="650" y="585" width="100" height="50" as="geometry" />
        </mxCell>
        <mxCell id="zzLc3jKyV_ecME2IhbBb-3" value="" style="endArrow=classic;html=1;rounded=0;exitX=0.25;exitY=1;exitDx=0;exitDy=0;entryX=0.31;entryY=0.008;entryDx=0;entryDy=0;entryPerimeter=0;" edge="1" parent="1" source="7nlG7WETLn1QZySaHx2K-23" target="7nlG7WETLn1QZySaHx2K-3">
          <mxGeometry width="50" height="50" relative="1" as="geometry">
            <mxPoint x="460" y="480" as="sourcePoint" />
            <mxPoint x="510" y="430" as="targetPoint" />
          </mxGeometry>
        </mxCell>
        <mxCell id="zzLc3jKyV_ecME2IhbBb-5" style="edgeStyle=orthogonalEdgeStyle;rounded=0;orthogonalLoop=1;jettySize=auto;html=1;entryX=0.631;entryY=-0.033;entryDx=0;entryDy=0;entryPerimeter=0;" edge="1" parent="1" source="7nlG7WETLn1QZySaHx2K-2" target="7nlG7WETLn1QZySaHx2K-3">
          <mxGeometry relative="1" as="geometry" />
        </mxCell>
        <mxCell id="zzLc3jKyV_ecME2IhbBb-7" value="" style="endArrow=classic;html=1;rounded=0;exitX=0;exitY=0.25;exitDx=0;exitDy=0;" edge="1" parent="1" source="7nlG7WETLn1QZySaHx2K-40">
          <mxGeometry width="50" height="50" relative="1" as="geometry">
            <mxPoint x="370" y="620" as="sourcePoint" />
            <mxPoint x="450" y="598" as="targetPoint" />
          </mxGeometry>
        </mxCell>
      </root>
    </mxGraphModel>
  </diagram>
</mxfile>
